HIERARCHY
ROOT Hips
{
	OFFSET 0.00000 0.00000 0.00000
	CHANNELS 6 Xposition Yposition Zposition Yrotation Zrotation Xrotation 
	JOINT Lumbar
	{
		OFFSET 0 0 0
		CHANNELS 3 Zrotation Xrotation Yrotation
		JOINT Neck
		{
			OFFSET 0.00 0.2701 0.00
			CHANNELS 3 Zrotation Xrotation Yrotation
			End Site
			{
				OFFSET 0.00 0.1379 0.00
			}
		}
		JOINT RightShoulder
		{
			OFFSET 0.0119 0.2289 0.1181
			CHANNELS 3 Zrotation Xrotation Yrotation
			JOINT RightElbow
			{
				OFFSET 0.00 -0.1475 0.00
				CHANNELS 2 Zrotation Yrotation
				JOINT RightWrist
				{
					OFFSET 0.00 -0.1605 0.00
					CHANNELS 2 Zrotation Xrotation
					End Site
					{
						OFFSET 0.0040 -0.1068 0.0006
					}
				}
			}
		}
		JOINT LeftShoulder
		{
			OFFSET 0.0119 0.2289 -0.1181
			CHANNELS 3 Zrotation Xrotation Yrotation
			JOINT LeftElbow
			{
				OFFSET 0.00 -0.1475 0.00
				CHANNELS 2 Zrotation Yrotation
				JOINT LeftWrist
				{
					OFFSET 0.00 -0.1605 0.00
					CHANNELS 2 Zrotation Xrotation
					End Site
					{
						OFFSET 0.0040 -0.1068 -0.0006
					}
				}
			}
		}
	}
	JOINT RightHip
	{
		OFFSET 0.0316 -0.0424 0.0458
		CHANNELS 3 Zrotation Xrotation Yrotation
		JOINT RightKnee
		{
			OFFSET 0.00 -0.2438 0.00
			CHANNELS 1 Zrotation
			JOINT RightAnkle
			{
				OFFSET 0.00 -0.2449 0.00
				CHANNELS 3 Zrotation Xrotation Yrotation
				End Site
				{
					OFFSET 0.1237 -0.0542 0.0051
				}
			}
		}
	}
	JOINT LeftHip
	{
		OFFSET 0.0316 -0.0424 -0.0458
		CHANNELS 3 Zrotation Xrotation Yrotation
		JOINT LeftKnee
		{
			OFFSET 0.00 -0.2438 0.00
			CHANNELS 1 Zrotation
			JOINT LeftAnkle
			{
				OFFSET 0.00 -0.2449 0.00
				CHANNELS 3 Zrotation Xrotation Yrotation
				End Site
				{
					OFFSET 0.1237 -0.0542 -0.0051
				}
			}
		}
	}
}
MOTION
Frames: 30
Frame Time: 0.02
-0.27131 -0.0036 -0.20859 186.43026 -20.07871 3.22171 36.43165 5.53551 -1.34501 -19.35215 -3.2629 -2.11989 -15.38292 -17.82081 -3.14861 33.86458 109.3023 7.91516 5.97569 86.70182 57.36493 -55.51175 11.8048 -9.71524 -28.97616 -14.78106 14.55494 3.95066 -13.44807 -8.33366 -8.66896 -3.76661 -4.17163 24.49637 9.88856 10.20115 -20.22561 -9.43906 0.8929 2.81236
-0.27138 -0.00384 -0.21 186.49641 -20.22038 3.13407 36.59098 5.41806 -1.07039 -19.43966 -2.72448 -2.11989 -15.0555 -17.37644 -3.15815 33.901 108.97631 7.73045 6.01383 82.11397 59.28575 -54.4218 16.00737 -30.64497 -18.11887 -13.07295 14.75163 4.19591 -13.40251 -8.37835 -8.65683 -3.77753 -4.17606 24.62067 9.92685 9.06016 -20.0514 -9.4231 0.99989 2.86255
-0.27153 -0.00405 -0.21138 186.51012 -20.41504 3.05908 36.80759 5.28366 -0.83891 -19.44741 -2.2692 -2.11989 -14.89369 -16.86137 -3.16295 34.07214 107.65456 7.40246 5.82671 76.82329 61.31216 -52.99866 21.12812 -57.42834 -4.31729 -10.77774 15.01442 4.41305 -13.36977 -8.45839 -8.63697 -3.78135 -4.17687 24.76324 9.91331 7.43576 -19.83567 -9.4047 1.13628 2.92606
-0.27164 -0.00427 -0.21277 186.54742 -20.57608 2.97815 36.98721 5.15801 -0.59684 -19.48485 -1.78825 -2.11989 -14.66477 -16.37517 -3.16536 34.18097 106.79799 7.13739 5.75035 71.86071 63.23714 -51.70352 25.82379 -80.61103 7.68136 -8.79939 15.23021 4.64336 -13.33592 -8.5091 -8.62119 -3.78795 -4.17914 24.88687 9.9325 6.09929 -19.63994 -9.38854 1.25272 2.98047
-0.27176 -0.00451 -0.21419 186.58432 -20.7758 2.89668 37.21167 5.02779 -0.31994 -19.5482 -1.25532 -2.11989 -14.40059 -15.89834 -3.19168 34.29599 105.9155 6.88587 5.64605 66.83034 65.39472 -50.48749 30.56638 -107.7355 21.64453 -6.60775 15.514 4.87363 -13.2812 -8.61286 -8.60314 -3.79641 -4.18218 25.05041 9.91678 4.47594 -19.43526 -9.36754 1.39531 3.04697
-0.27187 -0.00471 -0.21553 186.60883 -20.90961 2.81991 37.3581 4.90297 -0.12487 -19.5393 -0.85095 -2.11989 -14.24871 -15.388 -3.16122 34.4273 104.83901 6.56977 5.54299 61.802 67.088 -49.05167 35.42233 -128.08464 32.22166 -4.72426 15.67578 5.09631 -13.27302 -8.61756 -8.58772 -3.79924 -4.18269 25.13887 9.95945 3.33117 -19.24183 -9.35602 1.49158 3.092
-0.27192 -0.00484 -0.21664 186.62783 -20.83039 2.7525 37.2597 4.79925 -0.14231 -19.35018 -0.7794 -2.11989 -14.37679 -14.78857 -3.02654 34.59846 103.48043 6.11811 5.50555 56.75362 67.49672 -46.88001 40.38434 -127.8645 32.63818 -3.80201 15.45263 5.30921 -13.39467 -8.31613 -8.58426 -3.78908 -4.17776 24.99297 10.18254 3.67262 -19.07872 -9.37172 1.44603 3.07135
-0.27195 -0.00493 -0.21767 186.63339 -20.68627 2.68971 37.08349 4.70128 -0.24096 -19.09122 -0.8353 -2.11989 -14.61085 -14.16083 -2.82641 34.77684 101.95454 5.60415 5.47484 51.7686 67.42714 -44.53352 45.42213 -120.69749 29.56258 -3.21486 15.11022 5.51437 -13.56219 -7.91825 -8.58323 -3.77331 -4.17027 24.7752 10.46449 4.50457 -18.93073 -9.39697 1.3542 3.02928
-0.27197 -0.00504 -0.21873 186.63538 -20.58385 2.62532 36.95317 4.59931 -0.30347 -18.86483 -0.83346 -2.11989 -14.78933 -13.55565 -2.62109 34.9331 100.49595 5.11352 5.43545 46.88814 67.56366 -42.41103 50.41391 -116.99626 28.14121 -2.49774 14.84368 5.72024 -13.70586 -7.58043 -8.57927 -3.75966 -4.16353 24.60593 10.71475 5.08144 -18.78354 -9.41753 1.28817 2.99918
-0.27204 -0.00516 -0.2198 186.67726 -20.43224 2.55913 36.78108 4.50233 -0.36312 -18.63275 -0.83161 -2.11989 -15.00329 -12.90723 -2.55845 35.17133 99.04328 4.64021 5.41207 41.42683 67.76139 -39.68541 55.49329 -112.21561 26.53174 -1.6715 14.48889 5.93745 -13.86218 -7.17571 -8.58271 -3.74776 -4.15846 24.37162 10.98409 5.77554 -18.60291 -9.43943 1.2032 2.96019
-0.27202 -0.00525 -0.22083 186.63243 -20.36635 2.49777 36.67593 4.39689 -0.44891 -18.39619 -0.86164 -2.11989 -15.16835 -12.34282 -2.18896 35.24158 97.54728 4.11638 5.35982 37.19092 67.70424 -38.15528 60.38804 -107.93267 24.45545 -1.15277 14.28751 6.12898 -14.00344 -6.88646 -8.57145 -3.73076 -4.14929 24.25392 11.22834 6.35035 -18.49554 -9.46091 1.14604 2.93434
-0.27177 -0.0053 -0.22177 186.36124 -20.55808 2.44723 36.78133 4.26385 -0.57441 -18.17151 -0.92545 -2.11989 -15.15499 -12.02056 -0.9383 34.822 96.01577 3.48337 5.22635 36.40656 67.16508 -40.17784 64.81684 -106.90765 21.85094 -1.46584 14.5489 6.25677 -14.08658 -6.94351 -8.51886 -3.70288 -4.13008 24.48896 11.38899 6.45984 -18.59146 -9.47825 1.17936 2.95106
-0.27143 -0.00534 -0.22267 186.00156 -20.83696 2.40152 36.95513 4.1228 -0.7257 -17.94375 -1.02091 -2.11989 -15.09127 -11.78392 0.60941 34.23714 94.44626 2.80073 5.06406 36.84394 66.3657 -43.37507 69.03928 -106.56224 18.90008 -2.06873 14.96629 6.35823 -14.15349 -7.1189 -8.45149 -3.66976 -4.10674 24.84102 11.52253 6.4374 -18.75983 -9.49497 1.24175 2.98152
-0.27114 -0.00538 -0.22358 185.67641 -21.0726 2.35451 37.0931 3.98729 -0.87301 -17.71314 -1.11653 -2.11989 -15.0611 -11.5059 1.9886 33.7429 92.86698 2.1302 4.91682 36.66747 65.61632 -45.89575 73.31262 -105.75196 16.1539 -2.49819 15.30578 6.46828 -14.23183 -7.23774 -8.39094 -3.63783 -4.08488 25.13113 11.66877 6.48873 -18.8923 -9.51243 1.28902 3.00489
-0.27083 -0.00543 -0.22452 185.37529 -21.32201 2.30411 37.2489 3.84365 -0.98983 -17.49816 -1.15502 -2.11989 -14.98938 -11.23592 3.51226 33.18278 91.38315 1.49676 4.76404 36.72915 65.13894 -49.00109 77.77685 -105.3502 13.08693 -3.1109 15.67198 6.59189 -14.29644 -7.36612 -8.32985 -3.61066 -4.06459 25.45685 11.81573 6.50007 -19.03823 -9.52831 1.34241 3.03095
-0.27053 -0.00546 -0.2254 185.00261 -21.56345 2.26157 37.38424 3.71534 -1.17606 -17.25058 -1.31863 -2.11989 -14.99128 -10.9716 4.80388 32.72147 89.70914 0.78103 4.61259 36.59814 64.03888 -51.18442 81.78507 -104.36321 10.65252 -3.41173 16.01954 6.68163 -14.38293 -7.5025 -8.26661 -3.57252 -4.04013 25.73577 11.95363 6.55514 -19.17264 -9.5472 1.39099 3.05515
-0.27022 -0.00548 -0.22616 184.46004 -21.7691 2.24205 37.45186 3.62806 -1.54026 -16.91592 -1.81704 -2.11989 -15.20448 -10.68817 5.38814 32.56532 87.3889 -0.20003 4.502 35.51902 61.28899 -50.41148 84.6513 -101.49504 10.04988 -2.73441 16.29195 6.67972 -14.55354 -7.64542 -8.19885 -3.50432 -4.0047 25.86878 12.07615 6.77884 -19.26177 -9.57437 1.41556 3.06925
-0.2699 -0.00548 -0.22687 183.84757 -21.96278 2.22975 37.49608 3.55709 -1.97457 -16.54842 -2.44027 -2.11989 -15.49384 -10.41042 5.72684 32.51605 84.90306 -1.25248 4.38915 34.2262 57.92264 -48.69414 87.05142 -98.06824 10.11344 -1.74025 16.53837 6.64549 -14.74316 -7.79051 -8.12984 -3.42547 -3.96532 25.94892 12.18975 7.04634 -19.33598 -9.60454 1.43513 3.08139
-0.26959 -0.00549 -0.22759 183.2631 -22.15716 2.21252 37.54756 3.4807 -2.38096 -16.19493 -3.0075 -2.11989 -15.75046 -10.13899 6.17412 32.42278 82.5805 -2.23901 4.25623 33.1068 54.83713 -47.49042 89.62244 -94.99524 9.88851 -0.91964 16.78745 6.62915 -14.91044 -7.92599 -8.06284 -3.35218 -3.92808 26.04558 12.30501 7.28045 -19.41415 -9.63341 1.45969 3.09564
-0.26927 -0.0055 -0.22834 182.69103 -22.37396 2.20257 37.61486 3.39548 -2.77089 -15.84542 -3.57242 -2.11989 -15.99713 -9.83206 6.64595 32.30332 79.88818 -3.36871 4.20706 31.70479 51.7396 -45.97038 92.36472 -91.51561 9.58716 0.01566 17.07945 6.5985 -15.13354 -8.10102 -7.98924 -3.27565 -3.88923 26.17735 12.42897 7.56494 -19.50667 -9.6621 1.47405 3.1053
-0.26898 -0.0055 -0.22903 182.07817 -22.54083 2.17892 37.64374 3.3328 -3.21239 -15.47955 -4.17191 -2.11989 -16.28372 -9.60044 7.00267 32.26733 77.92309 -4.21645 3.98867 30.82866 48.52381 -44.87054 94.63526 -88.7474 9.61048 0.79085 17.27519 6.59017 -15.24697 -8.19382 -7.92926 -3.20343 -3.85285 26.22272 12.53365 7.75941 -19.56491 -9.69173 1.50774 3.12374
-0.26874 -0.00549 -0.2296 181.36586 -22.56635 2.11744 37.56386 3.32692 -3.77025 -15.07934 -4.83144 -2.11989 -16.65829 -9.56522 7.11447 32.42516 78.04356 -4.26791 3.25744 31.41776 45.13855 -45.14717 95.77602 -88.04367 10.35389 1.05092 17.20001 6.6527 -15.03686 -8.04883 -7.90763 -3.14562 -3.82431 26.03544 12.58175 7.6688 -19.53095 -9.72457 1.59909 3.16833
-0.26853 -0.00547 -0.23011 180.61594 -22.54297 2.0417 37.44756 3.34345 -4.37895 -14.66333 -5.52224 -2.11989 -17.07139 -9.60693 7.11461 32.66638 78.89537 -4.03299 2.36461 32.54434 41.65683 -45.87487 96.44732 -88.07903 11.4052 1.13964 17.0305 6.73854 -14.71884 -7.82249 -7.89972 -3.09252 -3.79839 25.76396 12.61167 7.49071 -19.46288 -9.75804 1.70942 3.22152
-0.26831 -0.00545 -0.23063 179.88644 -22.54549 1.97119 37.35286 3.35074 -4.97028 -14.25269 -6.20164 -2.11989 -17.46942 -9.61982 7.15645 32.87677 79.38776 -3.929 1.57633 33.44475 38.21515 -46.40157 97.29706 -87.79783 12.32711 1.3053 16.91057 6.8132 -14.46082 -7.63928 -7.88533 -3.03741 -3.77131 25.53481 12.65403 7.37123 -19.4108 -9.79026 1.80883 3.26972
-0.26808 -0.00543 -0.23119 179.14097 -22.53134 1.90574 37.23524 3.35469 -5.54056 -13.84843 -6.87331 -2.1199 -17.85957 -9.60759 7.22973 33.05978 79.98675 -3.82401 0.65717 34.26334 34.76334 -46.88453 98.28121 -87.41731 13.22954 1.48556 16.76034 6.88985 -14.15708 -7.42954 -7.87199 -2.98154 -3.74404 25.28597 12.67953 7.1769 -19.35609 -9.82644 1.91752 3.32231
-0.26787 -0.00542 -0.23167 178.42001 -22.54141 1.82684 37.15804 3.3706 -6.16497 -13.42772 -7.56717 -2.1199 -18.27454 -9.66518 7.21212 33.3197 80.54182 -3.65244 -0.02846 35.38107 31.32339 -47.5712 98.87573 -87.42459 14.23453 1.59085 16.65261 6.96749 -13.92284 -7.25654 -7.85967 -2.92829 -3.71775 25.0598 12.73453 7.113 -19.29906 -9.85476 2.01175 3.36799
-0.26774 -0.0054 -0.23193 177.78294 -22.62163 1.70931 37.19219 3.41506 -6.93282 -12.96456 -8.31082 -2.1199 -18.74631 -9.90235 6.98912 33.75882 80.77798 -3.36393 -0.02331 37.20671 27.89778 -48.77051 98.54703 -88.33964 15.46478 1.52787 16.67204 7.04956 -13.90539 -7.19727 -7.84743 -2.88315 -3.69435 24.90813 12.8878 7.46734 -19.24294 -9.85882 2.05865 3.39088
-0.26763 -0.00539 -0.23212 177.17093 -22.7293 1.57962 37.26991 3.47054 -7.75133 -12.4861 -9.0753 -2.1199 -19.24182 -10.20595 6.67641 34.27411 80.94878 -3.01854 0.22123 39.31363 24.50011 -50.15276 97.83718 -89.61863 16.77983 1.39426 16.73968 7.13063 -13.96166 -7.179 -7.83569 -2.84019 -3.67171 24.78374 13.06923 7.9496 -19.18587 -9.85536 2.09082 3.40679
-0.26751 -0.00538 -0.23234 176.54314 -22.83046 1.45874 37.33403 3.52021 -8.54272 -12.01492 -9.83276 -2.1199 -19.72753 -10.47555 6.39386 34.7627 81.16288 -2.70084 0.35204 41.28348 21.11825 -51.41602 97.28013 -90.72243 18.04292 1.29366 16.79456 7.20739 -13.98527 -7.14721 -7.82329 -2.79492 -3.64819 24.65327 13.22958 8.34816 -19.13007 -9.85694 2.13164 3.42703
-0.26738 -0.00537 -0.23257 175.93231 -22.90581 1.32353 37.37144 3.57395 -9.35531 -11.54021 -10.58313 -2.1199 -20.21027 -10.76432 6.15158 35.22181 81.34593 -2.36533 0.49817 43.30956 17.60538 -52.8451 96.79486 -91.8941 19.37896 1.18395 16.80914 7.30489 -14.00213 -7.09182 -7.81302 -2.75524 -3.627 24.49453 13.42381 8.84881 -19.06981 -9.85179 2.1651 3.44284
